HIERARCHY
ROOT Hips
{
	OFFSET 0.00000 0.00000 0.00000
	CHANNELS 6 Xposition Yposition Zposition Zrotation Yrotation Xrotation 
	JOINT LHipJoint
	{
		OFFSET 0 0 0
		CHANNELS 3 Zrotation Yrotation Xrotation
		JOINT LeftUpLeg
		{
			OFFSET 1.74857 -1.85566 0.69197
			CHANNELS 3 Zrotation Yrotation Xrotation
			JOINT LeftLeg
			{
				OFFSET 2.40003 -6.59403 0.00000
				CHANNELS 3 Zrotation Yrotation Xrotation
				JOINT LeftFoot
				{
					OFFSET 2.82169 -7.75254 0.00000
					CHANNELS 3 Zrotation Yrotation Xrotation
					JOINT LeftToeBase
					{
						OFFSET 0.16466 -0.45240 2.26890
						CHANNELS 3 Zrotation Yrotation Xrotation
						End Site
						{
							OFFSET 0.00000 -0.00000 1.16486
						}
					}
				}
			}
		}
	}
	JOINT RHipJoint
	{
		OFFSET 0 0 0
		CHANNELS 3 Zrotation Yrotation Xrotation
		JOINT RightUpLeg
		{
			OFFSET -1.64169 -1.85566 0.69197
			CHANNELS 3 Zrotation Yrotation Xrotation
			JOINT RightLeg
			{
				OFFSET -2.41814 -6.64379 0.00000
				CHANNELS 3 Zrotation Yrotation Xrotation
				JOINT RightFoot
				{
					OFFSET -2.80588 -7.70911 0.00000
					CHANNELS 3 Zrotation Yrotation Xrotation
					JOINT RightToeBase
					{
						OFFSET -0.19098 -0.52472 2.25401
						CHANNELS 3 Zrotation Yrotation Xrotation
						End Site
						{
							OFFSET -0.00000 -0.00000 1.16333
						}
					}
				}
			}
		}
	}
	JOINT LowerBack
	{
		OFFSET 0 0 0
		CHANNELS 3 Zrotation Yrotation Xrotation
		JOINT Spine
		{
			OFFSET -0.02828 2.14690 -0.11061
			CHANNELS 3 Zrotation Yrotation Xrotation
			JOINT Spine1
			{
				OFFSET -0.00167 2.15299 0.00759
				CHANNELS 3 Zrotation Yrotation Xrotation
				JOINT Neck
				{
					OFFSET 0 0 0
					CHANNELS 3 Zrotation Yrotation Xrotation
					JOINT Neck1
					{
						OFFSET -0.09296 1.90118 0.07197
						CHANNELS 3 Zrotation Yrotation Xrotation
						JOINT Head
						{
							OFFSET 0.08490 1.89526 -0.24604
							CHANNELS 3 Zrotation Yrotation Xrotation
							End Site
							{
								OFFSET 0.03186 1.92109 -0.09483
							}
						}
					}
				}
				JOINT LeftShoulder
				{
					OFFSET 0 0 0
					CHANNELS 3 Zrotation Yrotation Xrotation
					JOINT LeftArm
					{
						OFFSET 3.21569 1.44644 -0.03720
						CHANNELS 3 Zrotation Yrotation Xrotation
						JOINT LeftForeArm
						{
							OFFSET 5.47651 -0.00000 -0.00000
							CHANNELS 3 Zrotation Yrotation Xrotation
							JOINT LeftHand
							{
								OFFSET 3.09058 -0.00000 -0.00000
								CHANNELS 3 Zrotation Yrotation Xrotation
								JOINT LeftFingerBase
								{
									OFFSET 0 0 0
									CHANNELS 3 Zrotation Yrotation Xrotation
									JOINT LeftHandIndex1
									{
										OFFSET 0.77161 -0.00000 -0.00000
										CHANNELS 3 Zrotation Yrotation Xrotation
										End Site
										{
											OFFSET 0.62209 -0.00000 -0.00000
										}
									}
								}
								JOINT LThumb
								{
									OFFSET 0 0 0
									CHANNELS 3 Zrotation Yrotation Xrotation
									End Site
									{
										OFFSET 0.63159 -0.00000 0.63159
									}
								}
							}
						}
					}
				}
				JOINT RightShoulder
				{
					OFFSET 0 0 0
					CHANNELS 3 Zrotation Yrotation Xrotation
					JOINT RightArm
					{
						OFFSET -3.38693 1.28904 -0.07093
						CHANNELS 3 Zrotation Yrotation Xrotation
						JOINT RightForeArm
						{
							OFFSET -5.14182 -0.00000 -0.00000
							CHANNELS 3 Zrotation Yrotation Xrotation
							JOINT RightHand
							{
								OFFSET -3.35565 -0.00000 -0.00000
								CHANNELS 3 Zrotation Yrotation Xrotation
								JOINT RightFingerBase
								{
									OFFSET 0 0 0
									CHANNELS 3 Zrotation Yrotation Xrotation
									JOINT RightHandIndex1
									{
										OFFSET -0.80104 -0.00000 -0.00000
										CHANNELS 3 Zrotation Yrotation Xrotation
										End Site
										{
											OFFSET -0.64582 -0.00000 -0.00000
										}
									}
								}
								JOINT RThumb
								{
									OFFSET 0 0 0
									CHANNELS 3 Zrotation Yrotation Xrotation
									End Site
									{
										OFFSET -0.65568 -0.00000 0.65568
									}
								}
							}
						}
					}
				}
			}
		}
	}
}
MOTION
Frames: 15
Frame Time: .0083333
-0.5883 18.0588 -0.4913 0 0 0 0 0 0 -21 0 0 0 0 0 0 0 0 0 0 0 0 0 0 21 0 0 0 0 0 0 0 0 0 0 0 0 0 0 0 0 0 0 0 0 0 0 -16 0 0 21 0 0 11 0 0 0 -8 0 0 0 0 0 0 0 0 0 0 0 0 0 0 0 0 0 0 0 0 8 0 0 0 0 0 0 0 0 0 0 0 0 0 0 0 0 0
-0.5883 18.0588 -0.4913 1.2176 -11.6496 1.3686 0.0000 0.0000 0.0000 -17.5370 -0.4283 -3.7315 0.9258 6.1298 17.1616 0.5554 11.4632 -22.5234 0.5616 -4.7999 -13.3386 0.0000 0.0000 0.0000 19.9587 7.9541 -7.6140 -1.4572 -7.6299 21.5955 -0.4703 -7.4051 -17.7338 -0.5570 4.7808 -13.2843 -2.0928 -0.1825 6.3233 0.4481 -0.3558 5.3088 1.6502 -0.2554 1.9466 -2.9646 -1.0291 -2.5734 0.6692 -1.2755 10.2759 0.6891 -0.7210 3.8222 0.0000 0.0000 0.0000 -64.4443 33.1263 71.2264 67.2532 -57.9517 -40.4362 -0.0000 0.0000 -55.1833 16.6341 39.7764 10.8213 -7.1250 0.0000 -0.0000 -27.3710 69.1611 -16.2768 0.0000 0.0000 0.0000 29.4366 -25.8918 35.3645 -92.8209 59.9699 -62.4427 0.0000 -0.0000 -67.4758 3.5035 1.4655 0.0897 7.1250 -0.0000 -0.0000 22.8300 -28.1294 10.1294
-0.5984 18.0572 -0.4912 1.3864 -11.4437 1.2403 0.0000 0.0000 0.0000 -17.6769 -0.4615 -3.5971 0.9161 6.0984 17.0702 0.5424 11.4253 -22.3646 0.5752 -4.8567 -13.5004 0.0000 0.0000 0.0000 19.7970 7.8198 -7.6166 -1.4926 -7.7179 21.8605 -0.5237 -7.1597 -18.1279 -0.4584 4.3434 -12.0447 -2.5015 -0.1733 6.3722 0.3547 -0.3615 5.2600 1.7840 -0.2668 1.8727 -3.0483 -0.9906 -2.5248 0.9352 -1.2466 10.3986 0.7937 -0.7000 3.8596 0.0000 0.0000 0.0000 -64.3058 33.0582 71.1239 67.1487 -57.9319 -40.3476 -0.0000 0.0000 -54.8072 16.9769 39.4525 10.9786 -7.1250 0.0000 -0.0000 -26.4807 68.9938 -15.6226 0.0000 0.0000 0.0000 27.6886 -25.7738 35.2262 -93.1967 59.9614 -62.7681 0.0000 -0.0000 -67.8560 3.6611 1.3382 0.0856 7.1250 -0.0000 -0.0000 22.9701 -28.2415 10.1349
-0.6059 18.0531 -0.4919 1.5922 -11.2929 1.1810 0.0000 0.0000 0.0000 -17.8626 -0.5033 -3.6681 0.9285 6.1384 17.1865 0.5431 11.3499 -22.2937 0.5924 -4.9276 -13.7021 0.0000 0.0000 0.0000 19.5858 7.7320 -7.7302 -1.5078 -7.7553 21.9731 -0.5020 -7.2629 -17.9718 -0.4661 4.3792 -12.1461 -2.9100 -0.1483 6.3557 0.2262 -0.3447 5.2004 1.8800 -0.2663 1.8226 -3.0743 -0.9405 -2.4169 1.1815 -1.2055 10.3941 0.8821 -0.6707 3.8391 -0.0000 0.0000 0.0000 -64.1717 32.9919 70.9392 67.0654 -57.9161 -40.2770 -0.0000 0.0000 -54.4548 17.1965 39.2157 11.0711 -7.1250 0.0000 -0.0000 -25.8729 68.8595 -15.1694 -0.0000 0.0000 0.0000 26.0237 -25.6158 35.0751 -93.5949 59.9511 -63.1127 0.0000 -0.0000 -68.0837 3.8720 1.1784 0.0798 7.1250 -0.0000 -0.0000 23.1558 -28.3814 10.1464
-0.6151 18.0486 -0.4930 1.6635 -11.1451 1.0653 0.0000 0.0000 0.0000 -17.8802 -0.4069 -3.7193 0.9450 6.1914 17.3408 0.5411 11.2263 -22.1486 0.6340 -5.0944 -14.1780 0.0000 0.0000 0.0000 19.5564 7.6233 -7.7211 -1.5165 -7.7765 22.0374 -0.4692 -7.4120 -17.7274 -0.4500 4.3039 -11.9334 -3.1529 -0.1272 6.3937 0.1094 -0.3276 5.1907 1.8954 -0.2619 1.7924 -3.1001 -0.8853 -2.3642 1.4554 -1.1584 10.3954 0.9799 -0.6372 3.8316 0.0000 0.0000 0.0000 -64.0456 32.9690 70.6536 67.0968 -57.9221 -40.3036 -0.0000 0.0000 -54.1523 17.1804 38.9646 11.0024 -7.1250 0.0000 -0.0000 -25.5254 68.6375 -14.8300 0.0000 0.0000 0.0000 24.3781 -25.4365 34.8938 -93.9316 59.9415 -63.4042 0.0000 -0.0000 -68.4344 4.1926 1.1603 0.0851 7.1250 -0.0000 -0.0000 23.3901 -28.3865 10.2639
-0.6244 18.0466 -0.4929 1.4980 -10.9857 0.9988 0.0000 0.0000 0.0000 -17.6340 -0.3697 -3.7887 0.9702 6.2709 17.5726 0.5560 11.0172 -22.0772 0.6270 -5.0670 -14.0997 0.0000 0.0000 0.0000 19.7873 7.5065 -7.5988 -1.5140 -7.7706 22.0194 -0.4699 -7.4040 -17.7279 -0.3939 4.0297 -11.1602 -3.1247 -0.1070 6.4209 0.0338 -0.2999 5.1764 1.8006 -0.2451 1.7600 -3.0568 -0.8458 -2.3143 1.6973 -1.1336 10.4274 1.0540 -0.6137 3.8348 0.0000 -0.0000 0.0000 -63.8569 32.9186 70.4330 67.0698 -57.9169 -40.2807 -0.0000 0.0000 -53.9349 17.0981 38.8130 10.9127 -7.1250 0.0000 -0.0000 -25.4034 68.4803 -14.6669 0.0000 -0.0000 0.0000 22.7464 -25.2468 34.7206 -94.1876 59.9336 -63.6258 0.0000 -0.0000 -68.7807 4.4481 1.3237 0.1030 7.1250 -0.0000 -0.0000 23.5380 -28.2269 10.4389
-0.6321 18.0440 -0.4881 1.3637 -10.7917 0.9653 0.0000 0.0000 0.0000 -17.4326 -0.3702 -3.9141 1.0041 6.3764 17.8806 0.5809 10.7523 -22.0471 0.6170 -5.0271 -13.9858 0.0000 0.0000 0.0000 19.9699 7.3242 -7.5085 -1.5049 -7.7482 21.9520 -0.4568 -7.5308 -17.6899 -0.4245 4.1815 -11.5878 -3.0783 -0.0694 6.3580 -0.0407 -0.2445 5.1784 1.6948 -0.2152 1.7930 -3.0992 -0.8328 -2.2891 2.0124 -1.1452 10.4352 1.1664 -0.6081 3.8374 0.0000 -0.0000 0.0000 -63.6094 32.7082 70.3421 67.0252 -57.9084 -40.2429 -0.0000 0.0000 -53.8750 17.0307 38.8288 10.8718 -7.1250 0.0000 -0.0000 -25.5040 68.4731 -14.7238 0.0000 -0.0000 0.0000 21.1289 -25.1075 34.4698 -94.4712 59.9243 -63.8712 0.0000 -0.0000 -68.9489 4.7677 1.3505 0.1126 7.1250 -0.0000 -0.0000 23.7607 -28.1905 10.5784
-0.6383 18.0413 -0.4822 1.3336 -10.5100 0.9018 0.0000 0.0000 0.0000 -17.3525 -0.4921 -4.0385 1.0440 6.4979 18.2361 0.5959 10.5940 -22.0320 0.6680 -5.2267 -14.5563 0.0000 0.0000 0.0000 20.0250 7.0869 -7.3884 -1.4941 -7.7214 21.8711 -0.4652 -7.5306 -17.7874 -0.4011 4.0663 -11.2634 -3.1251 -0.0641 6.3056 -0.1255 -0.2358 5.2198 1.6329 -0.2122 1.8645 -3.1570 -0.8236 -2.3878 2.3146 -1.1556 10.4199 1.2776 -0.6023 3.8563 -0.0000 -0.0000 0.0000 -63.4675 32.4241 70.1572 66.8705 -57.8788 -40.1119 -0.0000 0.0000 -53.8002 16.8347 38.7580 10.7261 -7.1250 0.0000 -0.0000 -25.6301 68.3509 -14.7304 -0.0000 -0.0000 0.0000 19.5131 -24.9284 34.1428 -94.8097 59.9124 -64.1641 0.0000 -0.0000 -69.0370 5.2428 1.2942 0.1187 7.1250 -0.0000 -0.0000 24.1119 -28.2240 10.7428
-0.6462 18.0385 -0.4813 1.2387 -10.1629 0.9011 0.0000 0.0000 0.0000 -17.1799 -0.6386 -4.2310 1.0818 6.6109 18.5675 0.6148 10.3440 -21.9674 0.6965 -5.3348 -14.8661 0.0000 0.0000 0.0000 20.1582 6.9004 -7.3477 -1.4885 -7.7077 21.8296 -0.4766 -7.5783 -17.9607 -0.3549 3.8272 -10.5909 -3.1510 -0.0947 6.2299 -0.1939 -0.2734 5.2371 1.5782 -0.2314 1.9263 -3.1113 -0.8091 -2.4379 2.5363 -1.1593 10.4211 1.3438 -0.5928 3.8690 -0.0000 -0.0000 0.0000 -63.3336 32.2447 69.9551 66.8770 -57.8801 -40.1174 -0.0000 0.0000 -53.7322 17.0509 38.5510 10.8210 -7.1250 0.0000 -0.0000 -25.0888 68.2378 -14.3410 -0.0000 -0.0000 0.0000 17.8953 -24.7080 33.8326 -95.0565 59.9032 -64.3777 0.0000 -0.0000 -69.0617 5.5592 1.4479 0.1409 7.1250 -0.0000 -0.0000 24.3027 -28.0710 10.9424
-0.6554 18.0353 -0.4831 1.1380 -9.8670 0.9304 0.0000 0.0000 0.0000 -16.9946 -0.7080 -4.4963 1.1213 6.7266 18.9078 0.6179 10.1081 -21.7717 0.7427 -5.5051 -15.3550 0.0000 0.0000 0.0000 20.3007 6.7604 -7.3651 -1.4858 -7.7009 21.8093 -0.4703 -7.7163 -18.0138 -0.3677 3.8952 -10.7821 -3.2001 -0.1193 6.1557 -0.2746 -0.3043 5.2197 1.5236 -0.2468 1.9509 -3.0403 -0.7703 -2.4123 2.7792 -1.1363 10.4260 1.4137 -0.5688 3.8672 -0.0000 -0.0000 0.0000 -63.2156 32.1996 69.6872 66.9543 -57.8949 -40.1829 -0.0000 0.0000 -53.6389 17.2546 38.3294 10.9031 -7.1250 0.0000 -0.0000 -24.5464 68.1066 -13.9445 -0.0000 -0.0000 0.0000 16.3256 -24.4476 33.5545 -95.2037 59.8974 -64.5049 0.0000 -0.0000 -69.0069 5.5349 1.5762 0.1527 7.1250 -0.0000 -0.0000 24.2570 -27.9544 10.9924
-0.6630 18.0316 -0.4854 1.1360 -9.6267 0.9280 0.0000 0.0000 0.0000 -16.9355 -0.7883 -4.7387 1.1635 6.8477 19.2648 0.6329 9.8668 -21.6861 0.7532 -5.5433 -15.4648 0.0000 0.0000 0.0000 20.3212 6.5930 -7.3869 -1.4825 -7.6927 21.7846 -0.4695 -7.7425 -18.0287 -0.3625 3.8679 -10.7054 -3.3028 -0.1356 6.1348 -0.3818 -0.3286 5.1791 1.4718 -0.2590 1.9220 -3.1105 -0.7156 -2.3283 3.1144 -1.0929 10.3761 1.5402 -0.5369 3.8371 0.0000 0.0000 0.0000 -63.0938 32.2281 69.4423 67.1696 -57.9359 -40.3653 -0.0000 0.0000 -53.6023 17.3527 38.3196 10.9651 -7.1250 0.0000 -0.0000 -24.4190 68.1283 -13.8806 0.0000 0.0000 0.0000 14.7385 -24.1365 33.2839 -95.3833 59.8902 -64.6603 0.0000 -0.0000 -68.9780 6.2418 1.7048 0.1864 7.1250 -0.0000 -0.0000 24.7280 -27.8090 11.3438
-0.6697 18.0277 -0.4865 1.0070 -9.3786 0.8996 0.0000 0.0000 0.0000 -16.7416 -0.8506 -4.9246 1.2055 6.9658 19.6141 0.6460 9.6470 -21.6059 0.7701 -5.6035 -15.6382 0.0000 0.0000 0.0000 20.4950 6.4410 -7.3216 -1.4782 -7.6821 21.7526 -0.4707 -7.8291 -18.1209 -0.3595 3.8520 -10.6608 -3.2331 -0.1435 6.1624 -0.4677 -0.3370 5.1359 1.3449 -0.2581 1.8608 -3.1155 -0.6844 -2.3081 3.3915 -1.0801 10.4512 1.6359 -0.5197 3.8633 -0.0000 -0.0000 0.0000 -62.8225 32.2938 69.3718 67.5314 -58.0038 -40.6720 -0.0000 0.0000 -53.6868 17.5582 38.1621 11.0623 -7.1250 0.0000 -0.0000 -23.9659 68.0526 -13.5709 -0.0000 -0.0000 0.0000 13.1762 -23.8206 32.9929 -95.6679 59.8783 -64.9065 0.0000 -0.0000 -69.0067 7.6349 1.7502 0.2346 7.1250 -0.0000 -0.0000 25.6936 -27.7090 11.9517
-0.6762 18.0248 -0.4875 0.8795 -9.1225 0.8476 0.0000 0.0000 0.0000 -16.5388 -0.8680 -5.0876 1.2447 7.0740 19.9348 0.6545 9.4120 -21.4707 0.7892 -5.6711 -15.8330 0.0000 0.0000 0.0000 20.6734 6.3302 -7.2140 -1.4735 -7.6705 21.7176 -0.4711 -7.9573 -18.2422 -0.3544 3.8244 -10.5833 -3.1731 -0.1232 6.1853 -0.5511 -0.3073 5.1380 1.2243 -0.2398 1.8476 -3.0074 -0.6747 -2.3538 3.5734 -1.0910 10.4818 1.6781 -0.5129 3.8846 -0.0000 -0.0000 0.0000 -62.6066 32.2029 69.2718 67.6502 -58.0258 -40.7728 -0.0000 0.0000 -53.7486 17.8025 38.0869 11.2041 -7.1250 0.0000 -0.0000 -23.5796 68.0611 -13.3472 -0.0000 -0.0000 0.0000 11.6527 -23.5434 32.6259 -95.8493 59.8703 -65.0635 0.0000 -0.0000 -69.1497 8.2143 2.0034 0.2891 7.1250 -0.0000 -0.0000 26.0366 -27.4531 12.3265
-0.6833 18.0229 -0.4908 0.7863 -8.8755 0.7951 0.0000 0.0000 0.0000 -16.3814 -0.9063 -5.2539 1.2815 7.1738 20.2312 0.6437 9.3508 -21.3121 0.8591 -5.9108 -16.5257 0.0000 0.0000 0.0000 20.8156 6.2252 -7.1197 -1.4657 -7.6510 21.6589 -0.4635 -8.0913 -18.2808 -0.3504 3.8034 -10.5243 -3.2028 -0.1263 6.2216 -0.6035 -0.3135 5.1276 1.1876 -0.2422 1.8169 -3.0299 -0.6356 -2.2912 3.8284 -1.0631 10.4504 1.7690 -0.4901 3.8641 0.0000 -0.0000 0.0000 -62.6315 32.1632 68.9902 67.5524 -58.0077 -40.6898 -0.0000 0.0000 -53.6877 17.9078 37.8117 11.2056 -7.1250 0.0000 -0.0000 -23.0926 67.8489 -12.9500 0.0000 -0.0000 0.0000 10.0609 -23.1795 32.2914 -95.9614 59.8653 -65.1604 0.0000 -0.0000 -69.3379 8.0344 2.5858 0.3649 7.1250 -0.0000 -0.0000 25.7781 -26.9320 12.5353
-0.6912 18.0207 -0.4962 0.7574 -8.6335 0.7878 0.0000 0.0000 0.0000 -16.2874 -0.9723 -5.4327 1.3093 7.2483 20.4530 0.6408 9.2349 -21.1783 0.9001 -6.0465 -16.9194 0.0000 0.0000 0.0000 20.8816 6.1341 -7.1003 -1.4597 -7.6359 21.6136 -0.4637 -8.1579 -18.3449 -0.3435 3.7661 -10.4196 -3.3379 -0.1194 6.2528 -0.6508 -0.3118 5.0736 1.2148 -0.2424 1.7446 -3.1394 -0.5901 -2.1646 4.1445 -1.0282 10.4018 1.8965 -0.4657 3.8269 0.0000 0.0000 0.0000 -62.6137 32.1410 68.8393 67.4134 -57.9818 -40.5719 -0.0000 0.0000 -53.7224 17.9678 37.4273 11.1498 -7.1250 0.0000 -0.0000 -22.5284 67.5238 -12.4559 0.0000 0.0000 0.0000 8.4441 -22.8209 32.0062 -96.0947 59.8592 -65.2757 0.0000 -0.0000 -69.4650 8.0177 3.1794 0.4476 7.1250 -0.0000 -0.0000 25.6332 -26.3927 12.8169
